<svg xmlns="http://www.w3.org/2000/svg" viewBox="0 0 60 75" x="0px" y="0px"><title>040 - Money Eyes</title><path d="M30,3C14.561,3,2,14.215,2,28c0,11.408,8.761,21.369,21.009,24.182,0-.061-.009-.121-.009-.182V44.936a8.4,8.4,0,0,1-2.916-.954,3.963,3.963,0,0,1,2.34-7.429,65.516,65.516,0,0,0,15.152,0,3.914,3.914,0,0,1,3.079.952,3.976,3.976,0,0,1-.738,6.477A8.41,8.41,0,0,1,37,44.936V52c0,.061-.008.121-.009.182C49.239,49.369,58,39.408,58,28,58,14.215,45.439,3,30,3ZM13.611,11.078a14.075,14.075,0,0,1,10.778,0,1,1,0,0,1-.778,1.844,12.03,12.03,0,0,0-9.222,0,1,1,0,0,1-.778-1.844ZM19,34A10,10,0,1,1,29,24,10.011,10.011,0,0,1,19,34ZM35.611,11.078a14.075,14.075,0,0,1,10.778,0,1,1,0,0,1-.778,1.844,12.03,12.03,0,0,0-9.222,0,1,1,0,0,1-.778-1.844ZM41,34A10,10,0,1,1,51,24,10.011,10.011,0,0,1,41,34Z"/><path d="M40,40.491a1.977,1.977,0,0,0-.668-1.486,1.89,1.89,0,0,0-1.506-.468c-.27.034-.551.059-.826.09V42.9a6.494,6.494,0,0,0,1.969-.682A1.963,1.963,0,0,0,40,40.491Z"/><path d="M41,16a8,8,0,1,0,8,8A8.009,8.009,0,0,0,41,16Zm1,12.816V29a1,1,0,0,1-2,0v-.2a2.993,2.993,0,0,1-1.6-1.3,1,1,0,0,1,1.731-1A1,1,0,1,0,41,25a2.993,2.993,0,0,1-1-5.816V19a1,1,0,0,1,2,0v.2a2.993,2.993,0,0,1,1.6,1.3,1,1,0,0,1-1.731,1A1,1,0,1,0,41,23a2.993,2.993,0,0,1,1,5.816Z"/><path d="M19,16a8,8,0,1,0,8,8A8.009,8.009,0,0,0,19,16Zm1,12.816V29a1,1,0,0,1-2,0v-.2a2.993,2.993,0,0,1-1.6-1.3,1,1,0,0,1,1.731-1A1,1,0,1,0,19,25a2.993,2.993,0,0,1-1-5.816V19a1,1,0,0,1,2,0v.2a2.993,2.993,0,0,1,1.6,1.3,1,1,0,0,1-1.731,1A1,1,0,1,0,19,23a2.993,2.993,0,0,1,1,5.816Z"/><path d="M20.668,39.005a1.975,1.975,0,0,0,.364,3.216A6.479,6.479,0,0,0,23,42.9V38.627c-.275-.031-.556-.056-.826-.09A1.881,1.881,0,0,0,20.668,39.005Z"/><path d="M25,38.811V52a5,5,0,0,0,10,0V38.811c-1.609.121-3.276.189-5,.189S26.609,38.932,25,38.811ZM31,43v.2a2.993,2.993,0,0,1,1.6,1.3,1,1,0,0,1-1.731,1A1,1,0,1,0,30,47a2.993,2.993,0,0,1,1,5.816V53a1,1,0,0,1-2,0v-.2a2.993,2.993,0,0,1-1.6-1.3,1,1,0,0,1,1.731-1A1,1,0,1,0,30,49a2.993,2.993,0,0,1-1-5.816V43a1,1,0,0,1,2,0Z"/><text x="0" y="75" fill="#000000" font-size="5px" font-weight="bold" font-family="'Helvetica Neue', Helvetica, Arial-Unicode, Arial, Sans-serif">Created by Juicy Fish</text><text x="0" y="80" fill="#000000" font-size="5px" font-weight="bold" font-family="'Helvetica Neue', Helvetica, Arial-Unicode, Arial, Sans-serif">from the Noun Project</text></svg>